<?xml version="1.0" encoding="utf-8"?>
<svg viewBox="0 0 500 500" xmlns="http://www.w3.org/2000/svg">
  <g transform="matrix(1, 0, 0, 1, -5.498127, 0.929208)">
    <g style="" transform="matrix(-1, 0, -0.016307, 1, 490.663483, 2.090768)">
      <g>
        <g>
          <path style="stroke: rgb(0, 0, 0); fill: rgb(240, 244, 245);" d="M 224.612 425.03 C 224.612 425.03 195.973 449.588 180.406 464.457 C 177.045 467.668 177.419 478.196 178.017 478.196 C 178.615 478.196 234.17 450.717 234.17 450.717 L 224.612 425.03 Z"/>
          <path style="stroke: rgb(0, 0, 0); fill: rgb(240, 244, 245);" d="M 157.706 220.132 C 157.706 220.132 147.359 209.591 145.161 202.808 C 142.03 193.147 145.161 172.342 145.161 172.342 L 170.251 172.342 C 170.251 172.342 174.293 194.025 170.848 204.003 C 168.585 210.558 157.706 220.132 157.706 220.132 Z"/>
          <path style="stroke: rgb(0, 0, 0); fill: rgb(240, 244, 245);" d="M 212.664 167.563 C 212.664 167.563 74.245 244.79 29.868 269.116 C 23.609 272.547 19.115 287.635 19.115 287.635 L 212.664 255.376 L 212.664 167.563 Z"/>
          <path style="stroke: rgb(0, 0, 0); fill: rgb(255, 254, 254);" d="M 240.143 10.454 C 240.143 10.454 212.047 33.976 211.581 50.636 C 209.916 110.167 206.935 404.724 210.872 408.66 L 232.836 465.651"/>
        </g>
      </g>
    </g>
    <g style="" transform="matrix(1, 0, 0.016307, 1, 10.15794, 1.792115)">
      <g>
        <g>
          <path style="stroke: rgb(0, 0, 0); fill: rgb(240, 244, 245);" d="M 224.612 425.03 C 224.612 425.03 195.973 449.588 180.406 464.457 C 177.045 467.668 177.419 478.196 178.017 478.196 C 178.615 478.196 234.17 450.717 234.17 450.717 L 224.612 425.03 Z"/>
          <path style="stroke: rgb(0, 0, 0); fill: rgb(240, 244, 245);" d="M 157.706 220.132 C 157.706 220.132 147.359 209.591 145.161 202.808 C 142.03 193.147 145.161 172.342 145.161 172.342 L 170.251 172.342 C 170.251 172.342 174.293 194.025 170.848 204.003 C 168.585 210.558 157.706 220.132 157.706 220.132 Z"/>
          <path style="stroke: rgb(0, 0, 0); fill: rgb(240, 244, 245);" d="M 212.664 167.563 C 212.664 167.563 74.245 244.79 29.868 269.116 C 23.609 272.547 19.115 287.635 19.115 287.635 L 212.664 255.376 L 212.664 167.563 Z"/>
          <path style="stroke: rgb(0, 0, 0); fill: rgb(255, 255, 255);" d="M 240.124 11.649 C 240.124 11.649 212.047 33.976 211.581 50.636 C 209.916 110.167 206.935 404.724 210.872 408.66 L 232.836 465.651"/>
          <path style="stroke: rgb(0, 0, 0); fill: rgb(35, 34, 34);" d="M 220.943 41.585 C 235.258 27.362 241.377 19.501 257.394 40.987 C 260.246 44.813 257.625 37.644 252.081 29.441 C 249.087 25.01 244.293 23.776 240.95 23.663 C 237.033 23.531 232.261 25.378 228.633 29.779 C 223.23 36.331 220.943 41.585 220.943 41.585 Z"/>
          <path style="fill: rgb(216, 216, 216); stroke: rgb(0, 0, 0);" d="M 232.565 464.262 C 232.565 464.262 230.636 445.414 230.416 433.328 C 230.218 422.429 233.162 396.758 233.162 396.758 C 233.162 396.758 235.371 423.685 235.276 433.003 C 235.147 445.602 232.565 464.262 232.565 464.262 Z"/>
        </g>
      </g>
    </g>
  </g>
</svg>